<?xml version="1.0" standalone="no"?>
<!DOCTYPE svg PUBLIC "-//W3C//DTD SVG 20010904//EN"
 "http://www.w3.org/TR/2001/REC-SVG-20010904/DTD/svg10.dtd">
<svg version="1.0" xmlns="http://www.w3.org/2000/svg"
 width="80.000000pt" height="80.000000pt" viewBox="0 0 80.000000 80.000000"
 preserveAspectRatio="xMidYMid meet">
<metadata>
Created by potrace 1.14, written by Peter Selinger 2001-2017
</metadata>
<g transform="translate(0.000000,80.000000) scale(0.100000,-0.100000)"
fill="#000000" stroke="none">
<path d="M115 787 c-46 -18 -71 -39 -93 -77 -19 -33 -21 -51 -21 -303 1 -291
4 -310 56 -358 49 -45 73 -48 335 -48 269 1 307 5 345 41 58 54 61 71 61 353
1 295 -4 318 -74 371 l-37 29 -271 2 c-193 2 -280 -1 -301 -10z"/>
</g>
</svg>
